<svg
    xmlns:svg="http://www.w3.org/2000/svg"
    xmlns="http://www.w3.org/2000/svg"
    xmlns:sodipodi="http://sodipodi.sourceforge.net/DTD/sodipodi-0.dtd"
    xmlns:inkscape="http://www.inkscape.org/namespaces/inkscape"
    width="148.006mm"
    height="210.007mm"
    viewBox="0 0 148.006 210.007"
    >
  <sodipodi:namedview
      inkscape:document-units="mm"
      units="mm"
      />

  <g
      inkscape:label="F.Cu"
      inkscape:groupmode="layer"
      id="layer-0"
      style="display:inline"
      >
    <g
        inkscape:label="1"
        inkscape:groupmode="layer"
        id="layer-0-0"
        style="display:inline"
        >
      <path style="fill: none; stroke: #000000; stroke-width: 0.1;" d="M 74.8 75.6 L 71.2 75.6"/>
      <path style="fill: none; stroke: #000000; stroke-width: 0.1;" d="M 116.8 65.6 L 118 66.8 L 118 69.2 L 117.935 71.46"/>
      <path style="fill: none; stroke: #000000; stroke-width: 0.1;" d="M 95.836114 72.43144 L 94.4 66.4 L 93.6 65.6 L 76.675 65.6 L 71.325 65.6"/>
      <path style="fill: none; stroke: #000000; stroke-width: 0.1;" d="M 73.6 88 L 73.6 87.05 L 73.6 86"/>
      <path style="fill: none; stroke: #000000; stroke-width: 0.1;" d="M 73.6 87.05 L 73.6 89.6 L 72.975 90.4"/>
      <path style="fill: none; stroke: #000000; stroke-width: 0.1;" d="M 66 91.6 L 54 88.4 L 53.235696 85.938651 L 52.8 84.4 L 46.8 82.8 L 42.8 82.8 L 41.6 84 L 40.575 84.3 L 34.275 84.3"/>
      <path style="fill: none; stroke: #000000; stroke-width: 0.1;" d="M 78.25 84 L 77.2 84"/>
      <path style="fill: none; stroke: #000000; stroke-width: 0.1;" d="M 80.975 88 L 81.2 86.4"/>
      <path style="fill: none; stroke: #000000; stroke-width: 0.1;" d="M 44.785 71.46 L 44.8 67.6 L 46 66.4"/>
      <path style="fill: none; stroke: #000000; stroke-width: 0.1;" d="M 64.4 70 L 66.4 72 L 67.6 73.2 L 66.382315 76.241257"/>
      <path style="fill: none; stroke: #000000; stroke-width: 0.1;" d="M 68.575 90.4 L 69.6 89.2"/>
      <path style="fill: none; stroke: #000000; stroke-width: 0.1;" d="M 77.65 68.4 L 78.8 68.4 L 78.8 66"/>
      <path style="fill: none; stroke: #000000; stroke-width: 0.1;" d="M 78.8 68.4 L 78.8 70"/>
      <path style="fill: none; stroke: #000000; stroke-width: 0.1;" d="M 88.648593 86.37293 L 87.224192 85.693438 L 90.041321 84.809181 L 93.43779 86.280236 L 96.254919 85.395979 L 94.830518 84.716488"/>
    </g>

    <g
        inkscape:label="2"
        inkscape:groupmode="layer"
        id="layer-0-1"
        style="display:inline"
        >
      <path style="fill: none; stroke: #000000; stroke-width: 0.1;" d="M 75.6 70.19 L 75.6 70.8 L 79.2 70.8 L 79.6 70.4 L 79.6 67.2 L 80 66.8 L 80.8 66.9125"/>
    </g>

    <g
        inkscape:label="4"
        inkscape:groupmode="layer"
        id="layer-0-2"
        style="display:inline"
        >
      <path style="fill: none; stroke: #000000; stroke-width: 0.1;" d="M 72.8 76.4 L 73.6 77.2 L 73.6 78.55 L 73.6 77.6"/>
      <path style="fill: none; stroke: #000000; stroke-width: 0.1;" d="M 67.6 71.2 L 67.2 70.8 L 67.2 69.425"/>
    </g>

    <g
        inkscape:label="5"
        inkscape:groupmode="layer"
        id="layer-0-3"
        style="display:inline"
        >
      <path style="fill: none; stroke: #000000; stroke-width: 0.1;" d="M 70.975 73.2 L 72 74.4 L 73.2 74.4 L 73.6 74.8"/>
      <path style="fill: none; stroke: #000000; stroke-width: 0.1;" d="M 74.4 87.05 L 74.4 84.8"/>
    </g>

    <g
        inkscape:label="12"
        inkscape:groupmode="layer"
        id="layer-0-4"
        style="display:inline"
        >
      <path style="fill: none; stroke: #000000; stroke-width: 0.1;" d="M 74.8 70.8 L 74.8 71.6 L 75.775 73.2"/>
    </g>

    <g
        inkscape:label="13"
        inkscape:groupmode="layer"
        id="layer-0-5"
        style="display:inline"
        >
      <path style="fill: none; stroke: #000000; stroke-width: 0.1;" d="M 74 70.8 L 74 71.6 L 73.025 73.2"/>
    </g>

    <g
        inkscape:label="14"
        inkscape:groupmode="layer"
        id="layer-0-6"
        style="display:inline"
        >
      <path style="fill: none; stroke: #000000; stroke-width: 0.1;" d="M 69.75 83.2 L 67.6 83.2"/>
      <path style="fill: none; stroke: #000000; stroke-width: 0.1;" d="M 31.335 68.92 L 31.6 66.8 L 32.8 65.6"/>
    </g>

    <g
        inkscape:label="15"
        inkscape:groupmode="layer"
        id="layer-0-7"
        style="display:inline"
        >
      <path style="fill: none; stroke: #000000; stroke-width: 0.1;" d="M 69.75 80.8 L 68.4 80.8"/>
      <path style="fill: none; stroke: #000000; stroke-width: 0.1;" d="M 104.485 68.92 L 102.4 66.4"/>
    </g>

    <g
        inkscape:label="16"
        inkscape:groupmode="layer"
        id="layer-0-8"
        style="display:inline"
        >
      <path style="fill: none; stroke: #000000; stroke-width: 0.1;" d="M 82.187011 73.459105 L 81.6 71.6"/>
      <path style="fill: none; stroke: #000000; stroke-width: 0.1;" d="M 69.75 81.6 L 71.2 81.6"/>
    </g>

    <g
        inkscape:label="17"
        inkscape:groupmode="layer"
        id="layer-0-9"
        style="display:inline"
        >
      <path style="fill: none; stroke: #000000; stroke-width: 0.1;" d="M 68 82 L 68.4 82.4 L 69.75 82.4"/>
      <path style="fill: none; stroke: #000000; stroke-width: 0.1;" d="M 54.048012 70.306689 L 55.2 66.4 L 56 65.6 L 65.2 65.6 L 66 66.4 L 66 70.4"/>
    </g>

    <g
        inkscape:label="18"
        inkscape:groupmode="layer"
        id="layer-0-10"
        style="display:inline"
        >
      <path style="fill: none; stroke: #000000; stroke-width: 0.1;" d="M 75.2 85.6 L 75.2 87.05"/>
      <path style="fill: none; stroke: #000000; stroke-width: 0.1;" d="M 76 74.8 L 76.4 74.4 L 76.8 74.4 L 77.825 73.2"/>
    </g>

    <g
        inkscape:label="19"
        inkscape:groupmode="layer"
        id="layer-0-11"
        style="display:inline"
        >
      <path style="fill: none; stroke: #000000; stroke-width: 0.1;" d="M 53.893097 83.485199 L 52.8 83.6 L 46.8 82 L 42.8 82 L 41.6 80.8 L 40.575 80.5 L 34.275 80.5"/>
      <path style="fill: none; stroke: #000000; stroke-width: 0.1;" d="M 68.4 85.6 L 69.75 85.6"/>
      <path style="fill: none; stroke: #000000; stroke-width: 0.1;" d="M 68.4 88.8 L 67.025 88 L 66 86.8"/>
    </g>

    <g
        inkscape:label="20"
        inkscape:groupmode="layer"
        id="layer-0-12"
        style="display:inline"
        >
      <path style="fill: none; stroke: #000000; stroke-width: 0.1;" d="M 75.2 88.8 L 75.025 90.4 L 76 89.6 L 76 87.05 L 76.8 87.05 L 76.8 88"/>
      <path style="fill: none; stroke: #000000; stroke-width: 0.1;" d="M 76.8 87.05 L 76.8 89.6 L 77.375 90.4 L 77.2 92"/>
      <path style="fill: none; stroke: #000000; stroke-width: 0.1;" d="M 79.6 83.2 L 78.25 83.2 L 79.2 83.2"/>
      <path style="fill: none; stroke: #000000; stroke-width: 0.1;" d="M 75.025 90.4 L 74 91.6 L 74 92.8"/>
      <path style="fill: none; stroke: #000000; stroke-width: 0.1;" d="M 82.8 90.4 L 83.025 88 L 82.8 86.4"/>
      <path style="fill: none; stroke: #000000; stroke-width: 0.1;" d="M 58.1426 87.253452 L 63.6 87.2 L 64 87.2 L 64.975 88 L 65.2 90.4"/>
      <path style="fill: none; stroke: #000000; stroke-width: 0.1;" d="M 80.4 72 L 80.8 71.6 L 80.8 69.8875"/>
    </g>

    <g
        inkscape:label="21"
        inkscape:groupmode="layer"
        id="layer-0-13"
        style="display:inline"
        >
      <path style="fill: none; stroke: #000000; stroke-width: 0.1;" d="M 95.72434 83.415831 L 92.842506 84.058606 L 91.11839 83.226487 L 85.322835 84.779401 L 85.2 84.8 L 78.25 84.8"/>
    </g>

    <g
        inkscape:label="26"
        inkscape:groupmode="layer"
        id="layer-0-14"
        style="display:inline"
        >
      <path style="fill: none; stroke: #000000; stroke-width: 0.1;" d="M 56.346548 84.1426 L 56.8 82.4 L 65.6 79.2 L 70.8 77.2 L 71.6 77.2 L 72 77.6 L 72 78.55"/>
    </g>

    <g
        inkscape:label="27"
        inkscape:groupmode="layer"
        id="layer-0-15"
        style="display:inline"
        >
      <path style="fill: none; stroke: #000000; stroke-width: 0.1;" d="M 55.689148 86.596051 L 57.2 85.6 L 58 82.8 L 66.8 79.6 L 70 78.4 L 70.8 78.4 L 71.2 78.55"/>
    </g>

    <g
        inkscape:label="28"
        inkscape:groupmode="layer"
        id="layer-0-16"
        style="display:inline"
        >
      <path style="fill: none; stroke: #000000; stroke-width: 0.1;" d="M 58.8 84.8 L 59.2 83.2 L 68 80 L 69.75 80"/>
    </g>

    <g
        inkscape:label="30"
        inkscape:groupmode="layer"
        id="layer-0-17"
        style="display:inline"
        >
      <path style="fill: none; stroke: #000000; stroke-width: 0.1;" d="M 72.8 87.05 L 72.8 88.4 L 72.4 88.8 L 71.2 88.8 L 70.8 89.2 L 70.625 90.4"/>
    </g>

    <g
        inkscape:label="33"
        inkscape:groupmode="layer"
        id="layer-0-18"
        style="display:inline"
        >
      <path style="fill: none; stroke: #000000; stroke-width: 0.1;" d="M 87.754771 87.673586 L 90.636605 87.030811 L 89.269759 88.691152 L 86.951537 89.312317 L 86.461639 89.029474 L 85.633418 85.938512 L 85.2 85.6 L 78.25 85.6"/>
    </g>
  </g>

  <g
      inkscape:label="B.Cu"
      inkscape:groupmode="layer"
      id="layer-1"
      style="display:inline"
      >
    <g
        inkscape:label="1"
        inkscape:groupmode="layer"
        id="layer-1-0"
        style="display:inline"
        >
      <path style="fill: none; stroke: #000000; stroke-width: 0.1;" d="M 81.2 86.4 L 81.2 84.8 L 80.4 84"/>
      <path style="fill: none; stroke: #000000; stroke-width: 0.1;" d="M 46 66.4 L 50.4 66.4 L 64.4 70"/>
      <path style="fill: none; stroke: #000000; stroke-width: 0.1;" d="M 116.8 65.6 L 97.6 65.6 L 94.4 66.4 L 83.2 69.2"/>
      <path style="fill: none; stroke: #000000; stroke-width: 0.1;" d="M 94.830518 84.716488 L 88.648593 86.37293 L 84.78489 87.408206 L 79.6 88.8"/>
    </g>

    <g
        inkscape:label="4"
        inkscape:groupmode="layer"
        id="layer-1-1"
        style="display:inline"
        >
      <path style="fill: none; stroke: #000000; stroke-width: 0.1;" d="M 72.8 76.4 L 70 73.6 L 67.6 71.2"/>
    </g>

    <g
        inkscape:label="5"
        inkscape:groupmode="layer"
        id="layer-1-2"
        style="display:inline"
        >
      <path style="fill: none; stroke: #000000; stroke-width: 0.1;" d="M 73.6 74.8 L 74.4 75.6 L 74.4 84.8"/>
    </g>

    <g
        inkscape:label="14"
        inkscape:groupmode="layer"
        id="layer-1-3"
        style="display:inline"
        >
      <path style="fill: none; stroke: #000000; stroke-width: 0.1;" d="M 32.8 65.6 L 50.4 65.6 L 64.8 69.2 L 65.2 69.6 L 65.2 80 L 67.2 82 L 67.6 83.2"/>
    </g>

    <g
        inkscape:label="15"
        inkscape:groupmode="layer"
        id="layer-1-4"
        style="display:inline"
        >
      <path style="fill: none; stroke: #000000; stroke-width: 0.1;" d="M 102.4 66.4 L 97.6 66.4 L 83.6 70 L 82 70.4 L 79.2 70.4 L 76.4 73.2 L 70.8 73.2 L 68 70.4 L 67.2 70.4 L 66.8 70.8 L 66.8 79.2 L 68.4 80.8"/>
    </g>

    <g
        inkscape:label="16"
        inkscape:groupmode="layer"
        id="layer-1-5"
        style="display:inline"
        >
      <path style="fill: none; stroke: #000000; stroke-width: 0.1;" d="M 71.2 81.6 L 72.8 81.6 L 73.6 80.8 L 73.6 76 L 72.8 75.2 L 72.8 74.4 L 73.2 74 L 76.8 74 L 79.6 71.2 L 81.2 71.2 L 81.6 71.6"/>
    </g>

    <g
        inkscape:label="17"
        inkscape:groupmode="layer"
        id="layer-1-6"
        style="display:inline"
        >
      <path style="fill: none; stroke: #000000; stroke-width: 0.1;" d="M 66 70.4 L 66 72 L 66 79.6 L 67.6 81.2 L 68 82"/>
      <path style="fill: none; stroke: #000000; stroke-width: 0.1;" d="M 66 72 L 66 71.6"/>
    </g>

    <g
        inkscape:label="18"
        inkscape:groupmode="layer"
        id="layer-1-7"
        style="display:inline"
        >
      <path style="fill: none; stroke: #000000; stroke-width: 0.1;" d="M 76 74.8 L 75.2 75.6 L 75.2 85.6"/>
    </g>

    <g
        inkscape:label="19"
        inkscape:groupmode="layer"
        id="layer-1-8"
        style="display:inline"
        >
      <path style="fill: none; stroke: #000000; stroke-width: 0.1;" d="M 53.893097 83.485199 L 55.2 85.2 L 60 86.4 L 68.4 88.8"/>
      <path style="fill: none; stroke: #000000; stroke-width: 0.1;" d="M 66 86.8 L 66 86.4 L 66.8 85.6 L 67.6 85.6 L 68.4 85.6"/>
    </g>

    <g
        inkscape:label="20"
        inkscape:groupmode="layer"
        id="layer-1-9"
        style="display:inline"
        >
      <path style="fill: none; stroke: #000000; stroke-width: 0.1;" d="M 82.8 86.4 L 82.8 85.2 L 80.8 83.2 L 79.6 83.2"/>
      <path style="fill: none; stroke: #000000; stroke-width: 0.1;" d="M 82.8 90.4 L 81.6 90.8 L 77.2 92 L 74 92.8 L 70.8 92 L 66.4 90.8 L 65.2 90.4"/>
      <path style="fill: none; stroke: #000000; stroke-width: 0.1;" d="M 75.2 88.8 L 76 88 L 76 76 L 80 72"/>
    </g>
  </g>
</svg>
