  0
SECTION
  2
BLOCKS
  0
ENDSEC
  0
SECTION
  2
ENTITIES
  0
LINE
  8
0
 10
7.9265
 20
-15.9801
 11
26.5127
 21
-11
  0
LINE
  8
0
 10
26.5127
 20
-11
 11
45.25
 21
-11
  0
LINE
  8
0
 10
45.25
 20
-11
 11
45.537
 21
-10.9429
  0
LINE
  8
0
 10
45.537
 20
-10.9429
 11
45.7803
 21
-10.7803
  0
LINE
  8
0
 10
45.7803
 20
-10.7803
 11
45.9429
 21
-10.537
  0
LINE
  8
0
 10
45.9429
 20
-10.537
 11
46
 21
-10.25
  0
LINE
  8
0
 10
46
 20
-10.25
 11
46
 21
9.25
  0
LINE
  8
0
 10
46
 20
9.25
 11
45.9429
 21
9.537
  0
LINE
  8
0
 10
45.9429
 20
9.537
 11
45.7803
 21
9.78032
  0
LINE
  8
0
 10
45.7803
 20
9.78032
 11
45.537
 21
9.9429
  0
LINE
  8
0
 10
45.537
 20
9.9429
 11
45.25
 21
10
  0
LINE
  8
0
 10
45.25
 20
10
 11
-45.25
 21
10
  0
LINE
  8
0
 10
-45.25
 20
10
 11
-45.537
 21
9.9429
  0
LINE
  8
0
 10
-45.537
 20
9.9429
 11
-45.7803
 21
9.78032
  0
LINE
  8
0
 10
-45.7803
 20
9.78032
 11
-45.9429
 21
9.537
  0
LINE
  8
0
 10
-45.9429
 20
9.537
 11
-46
 21
9.25
  0
LINE
  8
0
 10
-46
 20
9.25
 11
-46
 21
-10.25
  0
LINE
  8
0
 10
-46
 20
-10.25
 11
-45.9429
 21
-10.537
  0
LINE
  8
0
 10
-45.9429
 20
-10.537
 11
-45.7803
 21
-10.7803
  0
LINE
  8
0
 10
-45.7803
 20
-10.7803
 11
-45.537
 21
-10.9429
  0
LINE
  8
0
 10
-45.537
 20
-10.9429
 11
-45.25
 21
-11
  0
LINE
  8
0
 10
-45.25
 20
-11
 11
-26.5127
 21
-11
  0
LINE
  8
0
 10
-26.5127
 20
-11
 11
-7.9265
 21
-15.9801
  0
LINE
  8
0
 10
-7.9265
 20
-15.9801
 11
-7.6395
 21
-16.0372
  0
LINE
  8
0
 10
-7.6395
 20
-16.0372
 11
7.6395
 21
-16.0372
  0
LINE
  8
0
 10
7.6395
 20
-16.0372
 11
7.9265
 21
-15.9801
  0
LINE
  8
0
 10
-42.825
 20
-7.125
 11
-43.0201
 21
-7.10577
  0
LINE
  8
0
 10
-43.0201
 20
-7.10577
 11
-43.2077
 21
-7.04887
  0
LINE
  8
0
 10
-43.2077
 20
-7.04887
 11
-43.3806
 21
-6.95647
  0
LINE
  8
0
 10
-43.3806
 20
-6.95647
 11
-43.5321
 21
-6.83209
  0
LINE
  8
0
 10
-43.5321
 20
-6.83209
 11
-43.6565
 21
-6.68056
  0
LINE
  8
0
 10
-43.6565
 20
-6.68056
 11
-43.7489
 21
-6.50768
  0
LINE
  8
0
 10
-43.7489
 20
-6.50768
 11
-43.8058
 21
-6.32008
  0
LINE
  8
0
 10
-43.8058
 20
-6.32008
 11
-43.825
 21
-6.125
  0
LINE
  8
0
 10
-43.825
 20
-6.125
 11
-43.825
 21
-3.625
  0
LINE
  8
0
 10
-43.825
 20
-3.625
 11
-43.8058
 21
-3.42992
  0
LINE
  8
0
 10
-43.8058
 20
-3.42992
 11
-43.7489
 21
-3.24232
  0
LINE
  8
0
 10
-43.7489
 20
-3.24232
 11
-43.6565
 21
-3.06944
  0
LINE
  8
0
 10
-43.6565
 20
-3.06944
 11
-43.5321
 21
-2.91791
  0
LINE
  8
0
 10
-43.5321
 20
-2.91791
 11
-43.3806
 21
-2.79353
  0
LINE
  8
0
 10
-43.3806
 20
-2.79353
 11
-43.2077
 21
-2.70113
  0
LINE
  8
0
 10
-43.2077
 20
-2.70113
 11
-43.125
 21
-2.67606
  0
LINE
  8
0
 10
-43.125
 20
-2.67606
 11
-43.125
 21
2.67606
  0
LINE
  8
0
 10
-43.125
 20
2.67606
 11
-43.2077
 21
2.70113
  0
LINE
  8
0
 10
-43.2077
 20
2.70113
 11
-43.3806
 21
2.79353
  0
LINE
  8
0
 10
-43.3806
 20
2.79353
 11
-43.5321
 21
2.91791
  0
LINE
  8
0
 10
-43.5321
 20
2.91791
 11
-43.6565
 21
3.06944
  0
LINE
  8
0
 10
-43.6565
 20
3.06944
 11
-43.7489
 21
3.24232
  0
LINE
  8
0
 10
-43.7489
 20
3.24232
 11
-43.8058
 21
3.42992
  0
LINE
  8
0
 10
-43.8058
 20
3.42992
 11
-43.825
 21
3.625
  0
LINE
  8
0
 10
-43.825
 20
3.625
 11
-43.825
 21
6.125
  0
LINE
  8
0
 10
-43.825
 20
6.125
 11
-43.8058
 21
6.32008
  0
LINE
  8
0
 10
-43.8058
 20
6.32008
 11
-43.7489
 21
6.50768
  0
LINE
  8
0
 10
-43.7489
 20
6.50768
 11
-43.6565
 21
6.68056
  0
LINE
  8
0
 10
-43.6565
 20
6.68056
 11
-43.5321
 21
6.83209
  0
LINE
  8
0
 10
-43.5321
 20
6.83209
 11
-43.3806
 21
6.95647
  0
LINE
  8
0
 10
-43.3806
 20
6.95647
 11
-43.2077
 21
7.04887
  0
LINE
  8
0
 10
-43.2077
 20
7.04887
 11
-43.0201
 21
7.10577
  0
LINE
  8
0
 10
-43.0201
 20
7.10577
 11
-42.825
 21
7.125
  0
LINE
  8
0
 10
-42.825
 20
7.125
 11
-29.175
 21
7.125
  0
LINE
  8
0
 10
-29.175
 20
7.125
 11
-28.9799
 21
7.10577
  0
LINE
  8
0
 10
-28.9799
 20
7.10577
 11
-28.7923
 21
7.04887
  0
LINE
  8
0
 10
-28.7923
 20
7.04887
 11
-28.6194
 21
6.95647
  0
LINE
  8
0
 10
-28.6194
 20
6.95647
 11
-28.4679
 21
6.83209
  0
LINE
  8
0
 10
-28.4679
 20
6.83209
 11
-28.3435
 21
6.68056
  0
LINE
  8
0
 10
-28.3435
 20
6.68056
 11
-28.2511
 21
6.50768
  0
LINE
  8
0
 10
-28.2511
 20
6.50768
 11
-28.1942
 21
6.32008
  0
LINE
  8
0
 10
-28.1942
 20
6.32008
 11
-28.175
 21
6.125
  0
LINE
  8
0
 10
-28.175
 20
6.125
 11
-28.175
 21
3.625
  0
LINE
  8
0
 10
-28.175
 20
3.625
 11
-28.1942
 21
3.42992
  0
LINE
  8
0
 10
-28.1942
 20
3.42992
 11
-28.2511
 21
3.24232
  0
LINE
  8
0
 10
-28.2511
 20
3.24232
 11
-28.3435
 21
3.06944
  0
LINE
  8
0
 10
-28.3435
 20
3.06944
 11
-28.4679
 21
2.91791
  0
LINE
  8
0
 10
-28.4679
 20
2.91791
 11
-28.6194
 21
2.79353
  0
LINE
  8
0
 10
-28.6194
 20
2.79353
 11
-28.7923
 21
2.70113
  0
LINE
  8
0
 10
-28.7923
 20
2.70113
 11
-28.875
 21
2.67606
  0
LINE
  8
0
 10
-28.875
 20
2.67606
 11
-28.875
 21
-2.67606
  0
LINE
  8
0
 10
-28.875
 20
-2.67606
 11
-28.7923
 21
-2.70113
  0
LINE
  8
0
 10
-28.7923
 20
-2.70113
 11
-28.6194
 21
-2.79353
  0
LINE
  8
0
 10
-28.6194
 20
-2.79353
 11
-28.4679
 21
-2.91791
  0
LINE
  8
0
 10
-28.4679
 20
-2.91791
 11
-28.3435
 21
-3.06944
  0
LINE
  8
0
 10
-28.3435
 20
-3.06944
 11
-28.2511
 21
-3.24232
  0
LINE
  8
0
 10
-28.2511
 20
-3.24232
 11
-28.1942
 21
-3.42992
  0
LINE
  8
0
 10
-28.1942
 20
-3.42992
 11
-28.175
 21
-3.625
  0
LINE
  8
0
 10
-28.175
 20
-3.625
 11
-28.175
 21
-6.125
  0
LINE
  8
0
 10
-28.175
 20
-6.125
 11
-28.1942
 21
-6.32008
  0
LINE
  8
0
 10
-28.1942
 20
-6.32008
 11
-28.2511
 21
-6.50768
  0
LINE
  8
0
 10
-28.2511
 20
-6.50768
 11
-28.3435
 21
-6.68056
  0
LINE
  8
0
 10
-28.3435
 20
-6.68056
 11
-28.4679
 21
-6.83209
  0
LINE
  8
0
 10
-28.4679
 20
-6.83209
 11
-28.6194
 21
-6.95647
  0
LINE
  8
0
 10
-28.6194
 20
-6.95647
 11
-28.7923
 21
-7.04887
  0
LINE
  8
0
 10
-28.7923
 20
-7.04887
 11
-28.9799
 21
-7.10577
  0
LINE
  8
0
 10
-28.9799
 20
-7.10577
 11
-29.175
 21
-7.125
  0
LINE
  8
0
 10
-29.175
 20
-7.125
 11
-42.825
 21
-7.125
  0
LINE
  8
0
 10
29.175
 20
-7.125
 11
28.9799
 21
-7.10577
  0
LINE
  8
0
 10
28.9799
 20
-7.10577
 11
28.7923
 21
-7.04887
  0
LINE
  8
0
 10
28.7923
 20
-7.04887
 11
28.6194
 21
-6.95647
  0
LINE
  8
0
 10
28.6194
 20
-6.95647
 11
28.4679
 21
-6.83209
  0
LINE
  8
0
 10
28.4679
 20
-6.83209
 11
28.3435
 21
-6.68056
  0
LINE
  8
0
 10
28.3435
 20
-6.68056
 11
28.2511
 21
-6.50768
  0
LINE
  8
0
 10
28.2511
 20
-6.50768
 11
28.1942
 21
-6.32008
  0
LINE
  8
0
 10
28.1942
 20
-6.32008
 11
28.175
 21
-6.125
  0
LINE
  8
0
 10
28.175
 20
-6.125
 11
28.175
 21
-3.625
  0
LINE
  8
0
 10
28.175
 20
-3.625
 11
28.1942
 21
-3.42992
  0
LINE
  8
0
 10
28.1942
 20
-3.42992
 11
28.2511
 21
-3.24232
  0
LINE
  8
0
 10
28.2511
 20
-3.24232
 11
28.3435
 21
-3.06944
  0
LINE
  8
0
 10
28.3435
 20
-3.06944
 11
28.4679
 21
-2.91791
  0
LINE
  8
0
 10
28.4679
 20
-2.91791
 11
28.6194
 21
-2.79353
  0
LINE
  8
0
 10
28.6194
 20
-2.79353
 11
28.7923
 21
-2.70113
  0
LINE
  8
0
 10
28.7923
 20
-2.70113
 11
28.875
 21
-2.67606
  0
LINE
  8
0
 10
28.875
 20
-2.67606
 11
28.875
 21
2.67606
  0
LINE
  8
0
 10
28.875
 20
2.67606
 11
28.7923
 21
2.70113
  0
LINE
  8
0
 10
28.7923
 20
2.70113
 11
28.6194
 21
2.79353
  0
LINE
  8
0
 10
28.6194
 20
2.79353
 11
28.4679
 21
2.91791
  0
LINE
  8
0
 10
28.4679
 20
2.91791
 11
28.3435
 21
3.06944
  0
LINE
  8
0
 10
28.3435
 20
3.06944
 11
28.2511
 21
3.24232
  0
LINE
  8
0
 10
28.2511
 20
3.24232
 11
28.1942
 21
3.42992
  0
LINE
  8
0
 10
28.1942
 20
3.42992
 11
28.175
 21
3.625
  0
LINE
  8
0
 10
28.175
 20
3.625
 11
28.175
 21
6.125
  0
LINE
  8
0
 10
28.175
 20
6.125
 11
28.1942
 21
6.32008
  0
LINE
  8
0
 10
28.1942
 20
6.32008
 11
28.2511
 21
6.50768
  0
LINE
  8
0
 10
28.2511
 20
6.50768
 11
28.3435
 21
6.68056
  0
LINE
  8
0
 10
28.3435
 20
6.68056
 11
28.4679
 21
6.83209
  0
LINE
  8
0
 10
28.4679
 20
6.83209
 11
28.6194
 21
6.95647
  0
LINE
  8
0
 10
28.6194
 20
6.95647
 11
28.7923
 21
7.04887
  0
LINE
  8
0
 10
28.7923
 20
7.04887
 11
28.9799
 21
7.10577
  0
LINE
  8
0
 10
28.9799
 20
7.10577
 11
29.175
 21
7.125
  0
LINE
  8
0
 10
29.175
 20
7.125
 11
42.825
 21
7.125
  0
LINE
  8
0
 10
42.825
 20
7.125
 11
43.0201
 21
7.10577
  0
LINE
  8
0
 10
43.0201
 20
7.10577
 11
43.2077
 21
7.04887
  0
LINE
  8
0
 10
43.2077
 20
7.04887
 11
43.3806
 21
6.95647
  0
LINE
  8
0
 10
43.3806
 20
6.95647
 11
43.5321
 21
6.83209
  0
LINE
  8
0
 10
43.5321
 20
6.83209
 11
43.6565
 21
6.68056
  0
LINE
  8
0
 10
43.6565
 20
6.68056
 11
43.7489
 21
6.50768
  0
LINE
  8
0
 10
43.7489
 20
6.50768
 11
43.8058
 21
6.32008
  0
LINE
  8
0
 10
43.8058
 20
6.32008
 11
43.825
 21
6.125
  0
LINE
  8
0
 10
43.825
 20
6.125
 11
43.825
 21
3.625
  0
LINE
  8
0
 10
43.825
 20
3.625
 11
43.8058
 21
3.42992
  0
LINE
  8
0
 10
43.8058
 20
3.42992
 11
43.7489
 21
3.24232
  0
LINE
  8
0
 10
43.7489
 20
3.24232
 11
43.6565
 21
3.06944
  0
LINE
  8
0
 10
43.6565
 20
3.06944
 11
43.5321
 21
2.91791
  0
LINE
  8
0
 10
43.5321
 20
2.91791
 11
43.3806
 21
2.79353
  0
LINE
  8
0
 10
43.3806
 20
2.79353
 11
43.2077
 21
2.70113
  0
LINE
  8
0
 10
43.2077
 20
2.70113
 11
43.125
 21
2.67606
  0
LINE
  8
0
 10
43.125
 20
2.67606
 11
43.125
 21
-2.67606
  0
LINE
  8
0
 10
43.125
 20
-2.67606
 11
43.2077
 21
-2.70113
  0
LINE
  8
0
 10
43.2077
 20
-2.70113
 11
43.3806
 21
-2.79353
  0
LINE
  8
0
 10
43.3806
 20
-2.79353
 11
43.5321
 21
-2.91791
  0
LINE
  8
0
 10
43.5321
 20
-2.91791
 11
43.6565
 21
-3.06944
  0
LINE
  8
0
 10
43.6565
 20
-3.06944
 11
43.7489
 21
-3.24232
  0
LINE
  8
0
 10
43.7489
 20
-3.24232
 11
43.8058
 21
-3.42992
  0
LINE
  8
0
 10
43.8058
 20
-3.42992
 11
43.825
 21
-3.625
  0
LINE
  8
0
 10
43.825
 20
-3.625
 11
43.825
 21
-6.125
  0
LINE
  8
0
 10
43.825
 20
-6.125
 11
43.8058
 21
-6.32008
  0
LINE
  8
0
 10
43.8058
 20
-6.32008
 11
43.7489
 21
-6.50768
  0
LINE
  8
0
 10
43.7489
 20
-6.50768
 11
43.6565
 21
-6.68056
  0
LINE
  8
0
 10
43.6565
 20
-6.68056
 11
43.5321
 21
-6.83209
  0
LINE
  8
0
 10
43.5321
 20
-6.83209
 11
43.3806
 21
-6.95647
  0
LINE
  8
0
 10
43.3806
 20
-6.95647
 11
43.2077
 21
-7.04887
  0
LINE
  8
0
 10
43.2077
 20
-7.04887
 11
43.0201
 21
-7.10577
  0
LINE
  8
0
 10
43.0201
 20
-7.10577
 11
42.825
 21
-7.125
  0
LINE
  8
0
 10
42.825
 20
-7.125
 11
29.175
 21
-7.125
  0
LINE
  8
0
 10
-10.0609
 20
-11.4385
 11
-23.2458
 21
-7.90558
  0
LINE
  8
0
 10
-23.2458
 20
-7.90558
 11
-23.4293
 21
-7.83652
  0
LINE
  8
0
 10
-23.4293
 20
-7.83652
 11
-23.5958
 21
-7.733
  0
LINE
  8
0
 10
-23.5958
 20
-7.733
 11
-23.7388
 21
-7.599
  0
LINE
  8
0
 10
-23.7388
 20
-7.599
 11
-23.853
 21
-7.43965
  0
LINE
  8
0
 10
-23.853
 20
-7.43965
 11
-23.9339
 21
-7.26108
  0
LINE
  8
0
 10
-23.9339
 20
-7.26108
 11
-23.9784
 21
-7.07018
  0
LINE
  8
0
 10
-23.9784
 20
-7.07018
 11
-23.9848
 21
-6.87425
  0
LINE
  8
0
 10
-23.9848
 20
-6.87425
 11
-23.9529
 21
-6.68083
  0
LINE
  8
0
 10
-23.9529
 20
-6.68083
 11
-23.3059
 21
-4.26602
  0
LINE
  8
0
 10
-23.3059
 20
-4.26602
 11
-23.2368
 21
-4.08257
  0
LINE
  8
0
 10
-23.2368
 20
-4.08257
 11
-23.1333
 21
-3.91609
  0
LINE
  8
0
 10
-23.1333
 20
-3.91609
 11
-22.9993
 21
-3.77301
  0
LINE
  8
0
 10
-22.9993
 20
-3.77301
 11
-22.84
 21
-3.65883
  0
LINE
  8
0
 10
-22.84
 20
-3.65883
 11
-22.6614
 21
-3.57791
  0
LINE
  8
0
 10
-22.6614
 20
-3.57791
 11
-22.4705
 21
-3.5334
  0
LINE
  8
0
 10
-22.4705
 20
-3.5334
 11
-22.3841
 21
-3.53058
  0
LINE
  8
0
 10
-22.3841
 20
-3.53058
 11
-20.9989
 21
1.63914
  0
LINE
  8
0
 10
-20.9989
 20
1.63914
 11
-21.0723
 21
1.68475
  0
LINE
  8
0
 10
-21.0723
 20
1.68475
 11
-21.2153
 21
1.81876
  0
LINE
  8
0
 10
-21.2153
 20
1.81876
 11
-21.3295
 21
1.97812
  0
LINE
  8
0
 10
-21.3295
 20
1.97812
 11
-21.4104
 21
2.15668
  0
LINE
  8
0
 10
-21.4104
 20
2.15668
 11
-21.455
 21
2.34758
  0
LINE
  8
0
 10
-21.455
 20
2.34758
 11
-21.4614
 21
2.54352
  0
LINE
  8
0
 10
-21.4614
 20
2.54352
 11
-21.4294
 21
2.73692
  0
LINE
  8
0
 10
-21.4294
 20
2.73692
 11
-20.7824
 21
5.15173
  0
LINE
  8
0
 10
-20.7824
 20
5.15173
 11
-20.7133
 21
5.33521
  0
LINE
  8
0
 10
-20.7133
 20
5.33521
 11
-20.6098
 21
5.50168
  0
LINE
  8
0
 10
-20.6098
 20
5.50168
 11
-20.4758
 21
5.64474
  0
LINE
  8
0
 10
-20.4758
 20
5.64474
 11
-20.3165
 21
5.75893
  0
LINE
  8
0
 10
-20.3165
 20
5.75893
 11
-20.1379
 21
5.83984
  0
LINE
  8
0
 10
-20.1379
 20
5.83984
 11
-19.947
 21
5.88435
  0
LINE
  8
0
 10
-19.947
 20
5.88435
 11
-19.7511
 21
5.89076
  0
LINE
  8
0
 10
-19.7511
 20
5.89076
 11
-19.5576
 21
5.85884
  0
LINE
  8
0
 10
-19.5576
 20
5.85884
 11
-6.37277
 21
2.32597
  0
LINE
  8
0
 10
-6.37277
 20
2.32597
 11
-6.18932
 21
2.2569
  0
LINE
  8
0
 10
-6.18932
 20
2.2569
 11
-6.02284
 21
2.1534
  0
LINE
  8
0
 10
-6.02284
 20
2.1534
 11
-5.87976
 21
2.01939
  0
LINE
  8
0
 10
-5.87976
 20
2.01939
 11
-5.76558
 21
1.86003
  0
LINE
  8
0
 10
-5.76558
 20
1.86003
 11
-5.68466
 21
1.68147
  0
LINE
  8
0
 10
-5.68466
 20
1.68147
 11
-5.64015
 21
1.49055
  0
LINE
  8
0
 10
-5.64015
 20
1.49055
 11
-5.63374
 21
1.29463
  0
LINE
  8
0
 10
-5.63374
 20
1.29463
 11
-5.66566
 21
1.10123
  0
LINE
  8
0
 10
-5.66566
 20
1.10123
 11
-6.31271
 21
-1.31358
  0
LINE
  8
0
 10
-6.31271
 20
-1.31358
 11
-6.38177
 21
-1.49704
  0
LINE
  8
0
 10
-6.38177
 20
-1.49704
 11
-6.48529
 21
-1.66351
  0
LINE
  8
0
 10
-6.48529
 20
-1.66351
 11
-6.61929
 21
-1.80658
  0
LINE
  8
0
 10
-6.61929
 20
-1.80658
 11
-6.77864
 21
-1.92076
  0
LINE
  8
0
 10
-6.77864
 20
-1.92076
 11
-6.95721
 21
-2.00168
  0
LINE
  8
0
 10
-6.95721
 20
-2.00168
 11
-7.14812
 21
-2.04619
  0
LINE
  8
0
 10
-7.14812
 20
-2.04619
 11
-7.23447
 21
-2.04901
  0
LINE
  8
0
 10
-7.23447
 20
-2.04901
 11
-8.61969
 21
-7.21875
  0
LINE
  8
0
 10
-8.61969
 20
-7.21875
 11
-8.54633
 21
-7.26437
  0
LINE
  8
0
 10
-8.54633
 20
-7.26437
 11
-8.40324
 21
-7.39838
  0
LINE
  8
0
 10
-8.40324
 20
-7.39838
 11
-8.28906
 21
-7.55772
  0
LINE
  8
0
 10
-8.28906
 20
-7.55772
 11
-8.20815
 21
-7.7363
  0
LINE
  8
0
 10
-8.20815
 20
-7.7363
 11
-8.16364
 21
-7.9272
  0
LINE
  8
0
 10
-8.16364
 20
-7.9272
 11
-8.15723
 21
-8.12312
  0
LINE
  8
0
 10
-8.15723
 20
-8.12312
 11
-8.18915
 21
-8.31654
  0
LINE
  8
0
 10
-8.18915
 20
-8.31654
 11
-8.8362
 21
-10.7314
  0
LINE
  8
0
 10
-8.8362
 20
-10.7314
 11
-8.90526
 21
-10.9148
  0
LINE
  8
0
 10
-8.90526
 20
-10.9148
 11
-9.00877
 21
-11.0813
  0
LINE
  8
0
 10
-9.00877
 20
-11.0813
 11
-9.14278
 21
-11.2244
  0
LINE
  8
0
 10
-9.14278
 20
-11.2244
 11
-9.30214
 21
-11.3385
  0
LINE
  8
0
 10
-9.30214
 20
-11.3385
 11
-9.4807
 21
-11.4195
  0
LINE
  8
0
 10
-9.4807
 20
-11.4195
 11
-9.6716
 21
-11.464
  0
LINE
  8
0
 10
-9.6716
 20
-11.464
 11
-9.86752
 21
-11.4704
  0
LINE
  8
0
 10
-9.86752
 20
-11.4704
 11
-10.0609
 21
-11.4385
  0
LINE
  8
0
 10
9.6716
 20
-11.464
 11
9.4807
 21
-11.4195
  0
LINE
  8
0
 10
9.4807
 20
-11.4195
 11
9.30214
 21
-11.3385
  0
LINE
  8
0
 10
9.30214
 20
-11.3385
 11
9.14278
 21
-11.2244
  0
LINE
  8
0
 10
9.14278
 20
-11.2244
 11
9.00877
 21
-11.0813
  0
LINE
  8
0
 10
9.00877
 20
-11.0813
 11
8.90526
 21
-10.9148
  0
LINE
  8
0
 10
8.90526
 20
-10.9148
 11
8.8362
 21
-10.7314
  0
LINE
  8
0
 10
8.8362
 20
-10.7314
 11
8.18915
 21
-8.31654
  0
LINE
  8
0
 10
8.18915
 20
-8.31654
 11
8.15723
 21
-8.12312
  0
LINE
  8
0
 10
8.15723
 20
-8.12312
 11
8.16364
 21
-7.9272
  0
LINE
  8
0
 10
8.16364
 20
-7.9272
 11
8.20815
 21
-7.7363
  0
LINE
  8
0
 10
8.20815
 20
-7.7363
 11
8.28906
 21
-7.55772
  0
LINE
  8
0
 10
8.28906
 20
-7.55772
 11
8.40324
 21
-7.39838
  0
LINE
  8
0
 10
8.40324
 20
-7.39838
 11
8.54633
 21
-7.26437
  0
LINE
  8
0
 10
8.54633
 20
-7.26437
 11
8.61969
 21
-7.21875
  0
LINE
  8
0
 10
8.61969
 20
-7.21875
 11
7.23447
 21
-2.04901
  0
LINE
  8
0
 10
7.23447
 20
-2.04901
 11
7.14812
 21
-2.04619
  0
LINE
  8
0
 10
7.14812
 20
-2.04619
 11
6.95721
 21
-2.00168
  0
LINE
  8
0
 10
6.95721
 20
-2.00168
 11
6.77864
 21
-1.92076
  0
LINE
  8
0
 10
6.77864
 20
-1.92076
 11
6.61929
 21
-1.80658
  0
LINE
  8
0
 10
6.61929
 20
-1.80658
 11
6.48529
 21
-1.66351
  0
LINE
  8
0
 10
6.48529
 20
-1.66351
 11
6.38177
 21
-1.49704
  0
LINE
  8
0
 10
6.38177
 20
-1.49704
 11
6.31271
 21
-1.31358
  0
LINE
  8
0
 10
6.31271
 20
-1.31358
 11
5.66566
 21
1.10123
  0
LINE
  8
0
 10
5.66566
 20
1.10123
 11
5.63374
 21
1.29463
  0
LINE
  8
0
 10
5.63374
 20
1.29463
 11
5.64015
 21
1.49055
  0
LINE
  8
0
 10
5.64015
 20
1.49055
 11
5.68466
 21
1.68147
  0
LINE
  8
0
 10
5.68466
 20
1.68147
 11
5.76558
 21
1.86003
  0
LINE
  8
0
 10
5.76558
 20
1.86003
 11
5.87976
 21
2.01939
  0
LINE
  8
0
 10
5.87976
 20
2.01939
 11
6.02284
 21
2.1534
  0
LINE
  8
0
 10
6.02284
 20
2.1534
 11
6.18932
 21
2.2569
  0
LINE
  8
0
 10
6.18932
 20
2.2569
 11
6.37277
 21
2.32597
  0
LINE
  8
0
 10
6.37277
 20
2.32597
 11
19.5576
 21
5.85884
  0
LINE
  8
0
 10
19.5576
 20
5.85884
 11
19.7511
 21
5.89076
  0
LINE
  8
0
 10
19.7511
 20
5.89076
 11
19.947
 21
5.88435
  0
LINE
  8
0
 10
19.947
 20
5.88435
 11
20.1379
 21
5.83984
  0
LINE
  8
0
 10
20.1379
 20
5.83984
 11
20.3165
 21
5.75893
  0
LINE
  8
0
 10
20.3165
 20
5.75893
 11
20.4758
 21
5.64474
  0
LINE
  8
0
 10
20.4758
 20
5.64474
 11
20.6098
 21
5.50168
  0
LINE
  8
0
 10
20.6098
 20
5.50168
 11
20.7133
 21
5.33521
  0
LINE
  8
0
 10
20.7133
 20
5.33521
 11
20.7824
 21
5.15173
  0
LINE
  8
0
 10
20.7824
 20
5.15173
 11
21.4294
 21
2.73692
  0
LINE
  8
0
 10
21.4294
 20
2.73692
 11
21.4614
 21
2.54352
  0
LINE
  8
0
 10
21.4614
 20
2.54352
 11
21.455
 21
2.34758
  0
LINE
  8
0
 10
21.455
 20
2.34758
 11
21.4104
 21
2.15668
  0
LINE
  8
0
 10
21.4104
 20
2.15668
 11
21.3295
 21
1.97812
  0
LINE
  8
0
 10
21.3295
 20
1.97812
 11
21.2153
 21
1.81876
  0
LINE
  8
0
 10
21.2153
 20
1.81876
 11
21.0723
 21
1.68475
  0
LINE
  8
0
 10
21.0723
 20
1.68475
 11
20.9989
 21
1.63914
  0
LINE
  8
0
 10
20.9989
 20
1.63914
 11
22.3841
 21
-3.53058
  0
LINE
  8
0
 10
22.3841
 20
-3.53058
 11
22.4705
 21
-3.5334
  0
LINE
  8
0
 10
22.4705
 20
-3.5334
 11
22.6614
 21
-3.57791
  0
LINE
  8
0
 10
22.6614
 20
-3.57791
 11
22.84
 21
-3.65883
  0
LINE
  8
0
 10
22.84
 20
-3.65883
 11
22.9993
 21
-3.77301
  0
LINE
  8
0
 10
22.9993
 20
-3.77301
 11
23.1333
 21
-3.91609
  0
LINE
  8
0
 10
23.1333
 20
-3.91609
 11
23.2368
 21
-4.08257
  0
LINE
  8
0
 10
23.2368
 20
-4.08257
 11
23.3059
 21
-4.26602
  0
LINE
  8
0
 10
23.3059
 20
-4.26602
 11
23.9529
 21
-6.68083
  0
LINE
  8
0
 10
23.9529
 20
-6.68083
 11
23.9848
 21
-6.87425
  0
LINE
  8
0
 10
23.9848
 20
-6.87425
 11
23.9784
 21
-7.07018
  0
LINE
  8
0
 10
23.9784
 20
-7.07018
 11
23.9339
 21
-7.26108
  0
LINE
  8
0
 10
23.9339
 20
-7.26108
 11
23.853
 21
-7.43965
  0
LINE
  8
0
 10
23.853
 20
-7.43965
 11
23.7388
 21
-7.599
  0
LINE
  8
0
 10
23.7388
 20
-7.599
 11
23.5958
 21
-7.733
  0
LINE
  8
0
 10
23.5958
 20
-7.733
 11
23.4293
 21
-7.83652
  0
LINE
  8
0
 10
23.4293
 20
-7.83652
 11
23.2458
 21
-7.90558
  0
LINE
  8
0
 10
23.2458
 20
-7.90558
 11
10.0609
 21
-11.4385
  0
LINE
  8
0
 10
10.0609
 20
-11.4385
 11
9.86752
 21
-11.4704
  0
LINE
  8
0
 10
9.86752
 20
-11.4704
 11
9.6716
 21
-11.464
  0
ENDSEC
  0
SECTION
  2
OBJECTS
  0
DICTIONARY
  0
ENDSEC
  0
EOF
